<svg class="like-icon" width="39" height="36" viewBox="0 0 39 36" fill="none" xmlns="http://www.w3.org/2000/svg" aria-hidden="true">
                  <g class="sparks" opacity="0">
                    <path d="M36 13H39V16H36V13Z"/>
                    <path d="M27 27H30V30H27V27Z"/>
                    <path d="M18 33H21V36H18V33Z"/>
                    <path d="M9 27H12V30H9V27Z"/>
                    <path d="M24 0H27V3H24V0Z"/>
                    <path d="M33 3H36V6H33V3Z"/>
                    <path d="M3 3H6V6H3V3Z"/>
                    <path d="M12 0H15V3H12V0Z"/>
                    <path d="M0 13H3V16H0V13Z"/>

                  </g>

                  <g class="heart">
                    <path class="contour" d="M12 6H9V9H12V6ZM15 6H12V9H15V6ZM18 6H15V9H18V6ZM21 6H24V9H21V6ZM24 6H27V9H24V6ZM27 6H30V9H27V6ZM9 9H6V12H9V9ZM24 9H33V12H30V9ZM9 12H6V15H9V12ZM30 12H33V15H30V12ZM9 15H6V18H9V15ZM30 15H33V18H30V15ZM12 18H9V21H12V18ZM27 18H30V21H27V18ZM15 21H12V24H15V21ZM24 21H27V24H24V21ZM18 24H15V27H18V24ZM21 24H24V27H21V24ZM21 27H18V30H21V27ZM21 9H18V12H21V9Z" fill="var(--contour-color)"/>
                    <path class="main-body" d="M12 9H9V12H12V9ZM15 9H12V12H15V9ZM24 9H27V12H24V9ZM27 9H30V12H27V9ZM12 12H9V15H12V12ZM15 12H12V15H15V12ZM18 12H15V15H18V12ZM21 12H24V15H21V12ZM24 12H27V15H24V12ZM27 12H30V15H27V12ZM12 15H9V18H12V15ZM15 15H12V18H15V15ZM18 15H15V18H18V15ZM21 15H24V18H21V15ZM24 15H27V18H24V15ZM27 15H30V18H27V15ZM15 18H12V21H15V18ZM18 18H15V21H18V18ZM21 18H24V21H21V18ZM24 18H27V21H24V18ZM18 21H15V24H18V21ZM21 21H24V24H21V21Z" fill="transparent"/>
                    <path class="core" d="M18 9H21V12H18V9ZM18 12H21V15H18V12ZM18 15H21V18H18V15ZM18 18H21V21H18V18ZM15 18H18V21H15V18ZM21 18H24V21H21V18ZM18 21H21V24H18V21ZM18 24H21V27H18V24Z" fill="transparent"/>
                  </g>
                </svg>