<svg xmlns="http://www.w3.org/2000/svg">
  <symbol id="save-icon" viewBox="0 0 39 39">
    <path fill="currentColor" d="M0 0H3V3H0Z M0 3H3V6H0Z M0 6H3V9H0Z M0 9H3V12H0Z M0 12H3V15H0Z M0 15H3V18H0Z M0 18H3V21H0Z M0 21H3V24H0Z M0 24H3V27H0Z M0 27H3V30H0Z M0 30H3V33H0Z M0 33H3V36H0Z M0 36H3V39H0Z M33 0V3H30V0Z M30 0V3H27V0Z M27 0L27 3H24V0Z M24 0V3H21V0Z M21 0V3H18V0Z M18 0V3H15L15 0Z M15 0V3H12V0Z M12 0L12 3H9V0Z M9 0V3H6L6 0Z M6 0L6 3H3V0Z M36 3V6H33V3Z M9 6V9H6V6Z M9 3V6H6V3Z M9 9V12H6V9Z M30 6V9H27V6Z M30 3L30 6H27V3Z M30 9V12H27V9Z M24 6V9H21V6Z M24 3V6H21V3Z M24 9V12H21V9Z M30 12V15H27V12Z M27 12V15H24V12Z M24 12V15H21V12Z M21 12V15H18V12Z M18 12V15H15V12Z M15 12V15H12V12Z M12 12L12 15L9 15L9 12Z M9 12V15L6 15V12Z M33 21V24H30V21Z M30 21V24H27V21Z M27 21L27 24H24L24 21Z M24 21V24H21V21Z M21 21V24H18V21Z M18 21V24H15V21Z M15 21V24H12V21Z M12 21V24H9V21Z M9 21V24H6V21Z M33 24V27H30V24Z M9 24V27H6V24Z M33 27V30H30V27Z M9 27V30H6V27Z M33 30V33H30V30Z M9 30V33H6V30Z M9 33V36H6V33Z M33 33V36H30V33Z M36 36V39H33V36Z M33 36V39H30V36Z M30 36V39H27V36Z M27 36V39H24V36Z M24 36V39H21V36Z M21 36V39H18V36Z M18 36V39H15V36Z M15 36V39H12V36Z M12 36V39H9V36Z M9 36V39H6V36Z M6 36V39H3V36Z M39 39H36V36H39Z M39 36H36V33H39Z M39 33H36V30H39Z M39 30H36V27H39Z M39 27H36L36 24H39Z M39 24H36V21H39Z M39 21H36V18H39Z M39 18H36V15H39Z M39 15H36V12H39Z M39 12H36V9H39Z M39 9H36V6H39Z"/>
  </symbol>
</svg>
